<svg width="16" height="16" viewBox="0 0 16 16" fill="none" xmlns="http://www.w3.org/2000/svg">
<path d="M6.80281 1.24716L7.59558 0.454394C7.93126 0.118718 8.47405 0.118718 8.80616 0.454394L15.7482 7.39291C16.0839 7.72858 16.0839 8.27138 15.7482 8.60349L8.80616 15.5456C8.47048 15.8812 7.92769 15.8812 7.59558 15.5456L6.80281 14.7528C6.46356 14.4136 6.47071 13.86 6.8171 13.5279L11.1202 9.42839H0.857047C0.3821 9.42839 0 9.04629 0 8.57135V7.42862C0 6.95367 0.3821 6.57157 0.857047 6.57157H11.1202L6.8171 2.47203C6.46714 2.13992 6.45999 1.58641 6.80281 1.24716Z" fill="white"/>
</svg>
