<svg width="16" height="16" viewBox="0 0 16 16" fill="none" xmlns="http://www.w3.org/2000/svg">
<path d="M9.19719 14.7528L8.40442 15.5456C8.06874 15.8813 7.52595 15.8813 7.19384 15.5456L0.251758 8.60709C-0.0839189 8.27142 -0.0839188 7.72862 0.251758 7.39651L7.19384 0.454432C7.52952 0.118755 8.07231 0.118755 8.40442 0.454432L9.19719 1.2472C9.53644 1.58645 9.52929 2.13996 9.1829 2.47206L4.87981 6.57161L15.143 6.57161C15.6179 6.57161 16 6.95371 16 7.42865L16 8.57138C16 9.04633 15.6179 9.42843 15.143 9.42843L4.87981 9.42843L9.1829 13.528C9.53286 13.8601 9.54001 14.4136 9.19719 14.7528Z" fill="#A3A3A3"/>
</svg>
