<svg width="24" height="20" viewBox="0 0 24 20" fill="none" xmlns="http://www.w3.org/2000/svg">
<path d="M7.80067 13.75C12.1096 13.75 15.6009 10.6717 15.6009 6.87474C15.6009 3.07774 12.1096 -0.000488281 7.80067 -0.000488281C3.49178 -0.000488281 0.000410431 3.07774 0.000410431 6.87474C0.000410431 8.38261 0.551679 9.77719 1.48546 10.9139C1.35421 11.2811 1.1592 11.6054 0.952943 11.8788C0.772937 12.121 0.58918 12.3085 0.454176 12.4374C0.386674 12.4999 0.330422 12.5507 0.29292 12.582C0.27417 12.5976 0.259169 12.6093 0.251669 12.6132L0.244169 12.621C0.0379117 12.7812 -0.0520913 13.0625 0.0304114 13.3164C0.112914 13.5703 0.341672 13.75 0.600431 13.75C1.41796 13.75 2.24299 13.5312 2.92926 13.2617C3.27427 13.125 3.59678 12.9726 3.87804 12.8164C5.02933 13.4101 6.36813 13.75 7.80067 13.75ZM16.801 6.87474C16.801 11.2616 13.0846 14.5664 8.68195 14.961C9.59324 17.8673 12.6158 20.0002 16.201 20.0002C17.6335 20.0002 18.9723 19.6603 20.1273 19.0666C20.4086 19.2228 20.7274 19.3752 21.0724 19.5119C21.7586 19.7814 22.5837 20.0002 23.4012 20.0002C23.66 20.0002 23.8925 19.8244 23.9712 19.5666C24.05 19.3088 23.9637 19.0275 23.7537 18.8673L23.7462 18.8595C23.7387 18.8517 23.7237 18.8439 23.705 18.8283C23.6675 18.797 23.6112 18.7501 23.5437 18.6837C23.4087 18.5548 23.2249 18.3673 23.0449 18.1251C22.8387 17.8517 22.6437 17.5235 22.5124 17.1602C23.4462 16.0274 23.9975 14.6328 23.9975 13.121C23.9975 9.49593 20.8136 6.52317 16.7747 6.26535C16.7897 6.46457 16.7972 6.66771 16.7972 6.87084L16.801 6.87474Z" fill="black"/>
</svg>
